<svg width="278" height="192" viewBox="0 0 278 192" fill="none" xmlns="http://www.w3.org/2000/svg">
<path fill-rule="evenodd" clip-rule="evenodd" d="M0 23C0 10.2974 10.2975 0 23 0H130.521C143.224 0 153.521 10.2975 153.521 23C153.521 40.1624 167.434 54.0753 184.596 54.0753H255C267.703 54.0753 278 64.3727 278 77.0753V119.043C278 131.746 267.703 142.043 255 142.043H170.768C154.223 142.043 140.811 155.455 140.811 172C140.811 183.046 131.857 192 120.811 192H74.7954C63.7497 192 54.7954 183.046 54.7954 172V127.29C54.7954 116.245 63.7497 107.29 74.7954 107.29H102.323C113.356 107.29 122.301 98.3456 122.301 87.3118C122.301 76.278 113.356 67.3333 102.323 67.3333H23C10.2975 67.3333 0 57.0359 0 44.3333V23Z" fill="url(#paint0_linear_333_134)"/>
<defs>
<linearGradient id="paint0_linear_333_134" x1="278" y1="0" x2="-21.8174" y2="147.718" gradientUnits="userSpaceOnUse">
<stop stop-color="#8F0B9B"/>
<stop offset="1" stop-color="#3109B4"/>
</linearGradient>
</defs>
</svg>
